<?xml version="1.0" encoding="utf-8"?>
<!-- Generator: Adobe Illustrator 19.2.0, SVG Export Plug-In . SVG Version: 6.00 Build 0)  -->
<svg version="1.1" id="Capa_1" xmlns="http://www.w3.org/2000/svg" xmlns:xlink="http://www.w3.org/1999/xlink" x="0px" y="0px"
	 viewBox="0 0 512 512" enable-background="new 0 0 512 512" xml:space="preserve">
<path id="XMLID_749_" fill="#4A4A4A" d="M404.307,463.83c0-4.734,3.838-8.572,8.572-8.572h52.066c4.734,0,8.572,3.838,8.572,8.572
	s-3.838,8.572-8.572,8.572h-52.066C408.145,472.402,404.307,468.564,404.307,463.83z M511.996,184.49v87.454
	c0.001,0.067,0.002,0.133,0.002,0.202s-0.001,0.135-0.002,0.202v87.454c0.001,0.067,0.002,0.133,0.002,0.202
	c0,0.069-0.001,0.135-0.002,0.202v131.142c0,11.388-9.263,20.653-20.651,20.653H360.861c-11.388,0-20.651-9.266-20.651-20.653
	V20.653C340.21,9.265,349.475,0,360.861,0h130.484c11.388,0,20.651,9.265,20.651,20.653v75.575c0.001,0.067,0.002,0.135,0.002,0.202
	s-0.001,0.135-0.002,0.202v87.455c0.001,0.067,0.002,0.133,0.002,0.202C511.999,184.358,511.998,184.423,511.996,184.49z
	 M494.852,368.574H357.355v122.772c0,1.902,1.607,3.509,3.506,3.509h130.484c1.901,0,3.506-1.607,3.506-3.509V368.574z
	 M494.852,280.718H357.355v70.712h137.497V280.718z M494.852,192.86H357.355v70.712h137.497V192.86z M494.852,105.004H357.355
	v70.713h137.497V105.004z M494.852,20.653c0-1.902-1.607-3.509-3.506-3.509H360.861c-1.901,0-3.506,1.607-3.506,3.509v67.205
	h137.497V20.653z M434.013,440.311h30.933c4.734,0,8.572-3.838,8.572-8.572s-3.838-8.572-8.572-8.572h-30.933
	c-4.734,0-8.572,3.838-8.572,8.572S429.278,440.311,434.013,440.311z M10.32,173.134c-8.052-8.054-8.052-21.158,0.001-29.21
	l92.263-92.263c3.892-3.892,9.077-6.035,14.604-6.035c5.528,0,10.714,2.143,14.605,6.036l53.38,53.379
	c0.07,0.066,0.138,0.132,0.208,0.201c0.069,0.069,0.135,0.137,0.2,0.207l61.751,61.75c0.058,0.055,0.115,0.11,0.173,0.168
	c0.056,0.056,0.113,0.114,0.167,0.171l64.133,64.132c3.347,3.347,3.347,8.776,0,12.123c-1.87,1.87-4.393,2.689-6.831,2.476
	l-98.635,98.633l50,50l43.343-43.341c3.347-3.348,8.776-3.347,12.123,0c1.673,1.674,2.51,3.867,2.51,6.062s-0.838,4.388-2.512,6.062
	l-43.342,43.341l43.343,43.342c3.347,3.348,3.347,8.776,0,12.122c-1.674,1.674-3.869,2.51-6.062,2.51
	c-2.193,0-4.388-0.838-6.062-2.51L10.32,173.134z M241.439,185.556l-97.225,97.226l50,50.001l97.226-97.225L241.439,185.556z
	 M179.314,123.432l-97.226,97.225l50.002,50.002l97.225-97.226L179.314,123.432z M22.445,161.012l47.521,47.521l97.226-97.225
	l-47.525-47.523c-0.882-0.882-1.931-1.014-2.48-1.014c-0.547,0-1.598,0.132-2.479,1.013l-92.264,92.264
	C21.099,157.393,21.099,159.666,22.445,161.012z M326.426,503.428c0,4.734-3.838,8.572-8.572,8.572H20.653
	C9.265,512,0,502.735,0,491.347V360.864c0-11.388,9.264-20.652,20.652-20.652h75.549c0.151-0.004,0.306-0.004,0.457,0h46.434
	c4.734,0,8.572,3.838,8.572,8.572s-3.838,8.572-8.572,8.572h-38.088v137.498h70.713V389.98c0-4.734,3.838-8.572,8.572-8.572
	s8.572,3.838,8.572,8.572v104.875h70.712v-17.017c0-4.734,3.838-8.572,8.572-8.572s8.572,3.838,8.572,8.572v17.017h37.135
	C322.588,494.855,326.426,498.693,326.426,503.428z M87.859,357.358H20.653c-1.902,0-3.507,1.607-3.507,3.507v130.482
	c0,1.902,1.607,3.509,3.507,3.509h67.206V357.358z"/>
</svg>
