<?xml version="1.0" encoding="utf-8"?>
<!-- Generator: Adobe Illustrator 19.2.0, SVG Export Plug-In . SVG Version: 6.00 Build 0)  -->
<svg version="1.1" id="Capa_1" xmlns="http://www.w3.org/2000/svg" xmlns:xlink="http://www.w3.org/1999/xlink" x="0px" y="0px"
	 viewBox="0 0 512 468.589" enable-background="new 0 0 512 468.589" xml:space="preserve">
<g>
	<g id="Layer_1_6_">
		<g>
			<path fill="#313131" d="M463.404,67.954L218.373,2.299C212.665,0.773,206.804,0,200.933,0c-28.89,0-54.065,18.672-61.233,45.415
				l-31.831,118.784h46.679l12.658-47.224l283.147,75.874l-24.794,92.585c-2.048,7.593-10.643,12.637-19.685,11.874v45.1
				c0.675,0.022,1.34,0.142,2.004,0.142c28.912,0,54.087-18.704,61.255-45.426l40.851-152.478
				C518.809,111.594,497.925,77.203,463.404,67.954z M466.399,132.957l-4.368,16.34L178.873,73.423l4.379-16.33
				c1.895-7.07,9.162-12.005,17.68-12.005c1.928,0,3.856,0.261,5.763,0.763l245.03,65.656
				C462.053,114.274,468.774,124.1,466.399,132.957z"/>
			<path fill="#313131" d="M318.486,186.749H64.828C29.086,186.749,0,214.572,0,248.756v157.838
				c0,34.195,29.086,61.996,64.828,61.996h253.68c35.742,0,64.828-27.822,64.828-61.996V248.756
				C383.325,214.572,354.26,186.749,318.486,186.749z M338.225,406.593c0,9.183-9.031,16.918-19.739,16.918H64.828
				c-10.687,0-19.728-7.734-19.728-16.918V248.756c0-9.162,9.042-16.907,19.728-16.907h253.68c10.698,0,19.728,7.745,19.728,16.907
				L338.225,406.593L338.225,406.593z"/>
			<path fill="#313131" d="M128.24,372.78h-45.1c-6.231,0-11.275,5.044-11.275,11.264v11.275c0,6.231,5.044,11.275,11.275,11.275
				h45.1c6.231,0,11.275-5.044,11.275-11.275v-11.275C139.525,377.823,134.471,372.78,128.24,372.78z"/>
			<path fill="#313131" d="M214.212,372.78h-45.1c-6.22,0-11.275,5.044-11.275,11.264v11.275c0,6.231,5.044,11.275,11.275,11.275
				h45.1c6.22,0,11.275-5.044,11.275-11.275v-11.275C225.487,377.823,220.432,372.78,214.212,372.78z"/>
			<path fill="#313131" d="M300.174,372.78h-45.1c-6.22,0-11.275,5.044-11.275,11.264v11.275c0,6.231,5.044,11.275,11.275,11.275
				h45.1c6.231,0,11.275-5.044,11.275-11.275v-11.275C311.449,377.823,306.405,372.78,300.174,372.78z"/>
			<path fill="#313131" d="M196.357,327.538h85.493c6.209,0,11.275-4.728,11.275-10.512v-42.104c0-5.774-5.066-10.491-11.275-10.491
				h-85.493c-6.198,0-11.275,4.717-11.275,10.491v42.104C185.093,322.811,190.159,327.538,196.357,327.538z M207.643,291.829
				c0-5.795,5.066-10.512,11.275-10.512h40.394c6.198,0,11.275,4.717,11.275,10.512v8.279c0,5.785-5.076,10.501-11.275,10.501
				h-40.394c-6.209,0-11.275-4.717-11.275-10.501V291.829z"/>
		</g>
	</g>
</g>
</svg>
