<?xml version="1.0" encoding="utf-8"?>
<!-- Generator: Adobe Illustrator 19.2.0, SVG Export Plug-In . SVG Version: 6.00 Build 0)  -->
<svg version="1.1" id="Capa_1" xmlns="http://www.w3.org/2000/svg" xmlns:xlink="http://www.w3.org/1999/xlink" x="0px" y="0px"
	 viewBox="0 0 417.506 512" enable-background="new 0 0 417.506 512" xml:space="preserve">
<g>
	<g>
		<path fill="#313131" d="M127.049,208.753c0-6.976-5.708-12.684-12.684-12.684H12.684C5.708,196.069,0,201.777,0,208.753
			s5.708,12.684,12.684,12.684h101.681C121.341,221.437,127.049,215.729,127.049,208.753z"/>
		<path fill="#313131" d="M404.822,196.069H303.141c-6.976,0-12.684,5.708-12.684,12.684s5.708,12.684,12.684,12.684h101.681
			c6.976,0,12.684-5.708,12.684-12.684S411.904,196.069,404.822,196.069z"/>
		<path fill="#313131" d="M208.753,127.049c6.976,0,12.684-5.708,12.684-12.684V12.684C221.437,5.708,215.729,0,208.753,0
			s-12.684,5.708-12.684,12.684v101.681C196.069,121.341,201.777,127.049,208.753,127.049z"/>
		<path fill="#313131" d="M275.448,154.742c3.277,0,6.448-1.268,8.984-3.699l71.98-71.98c4.968-4.968,4.968-13.001,0-17.969
			c-4.968-4.968-13.001-4.968-17.969,0l-71.98,71.98c-4.968,4.968-4.968,13.001,0,17.969
			C269.001,153.473,272.277,154.742,275.448,154.742z"/>
		<path fill="#313131" d="M133.074,151.042c2.431,2.431,5.708,3.699,8.984,3.699s6.448-1.268,8.984-3.699
			c4.968-4.968,4.968-13.001,0-17.969l-71.98-71.98c-4.968-4.968-13.001-4.968-17.969,0s-4.968,13.001,0,17.969L133.074,151.042z"/>
		<path fill="#313131" d="M361.169,288.766c-9.618-8.244-21.774-12.789-34.14-12.789h-11.521h-41.434h-19.66v-51.263
			c0-24.522-7.293-42.385-21.774-53.06c-22.831-16.7-53.8-7.293-55.174-6.87c-5.285,1.691-8.879,6.553-8.879,12.05v61.833
			c0,18.814-8.984,34.775-26.847,47.564c-13.529,9.724-27.376,14.163-29.173,14.692l-1.268,0.317
			c-4.756-5.391-11.732-8.773-19.554-8.773H43.547c-14.375,0-26.107,11.732-26.107,26.107v158.124
			c0,14.375,11.732,26.107,26.107,26.107h48.41c6.342,0,12.261-2.325,16.7-6.13c9.724,9.513,22.936,15.326,37.206,15.326h48.092
			h4.968h98.405c15.22,0,28.644-3.699,38.897-10.57c13.107-8.879,21.245-22.936,23.571-40.905l19.554-121.552
			C382.415,320.159,375.438,300.922,361.169,288.766z M92.697,476.697c0,0.423-0.317,0.74-0.74,0.74h-48.41
			c-0.423,0-0.74-0.317-0.74-0.74V318.573c0-0.423,0.317-0.74,0.74-0.74h48.41c0.423,0,0.74,0.317,0.74,0.74V476.697z
			 M354.299,335.062l-19.554,121.764c0,0.106,0,0.317-0.106,0.528c-0.846,7.293-3.594,29.384-37.311,29.384h-98.405h-4.968h-48.092
			c-13.529,0-25.367-10.147-27.481-23.571c-0.106-0.528-0.211-1.057-0.317-1.48V325.761l0.74-0.211c0.211,0,0.317-0.106,0.528-0.106
			c0.74-0.211,18.708-5.285,36.571-18.074c24.839-17.652,38.051-41.434,38.051-68.704v-51.369c6.976-0.74,16.595-0.423,23.676,4.756
			c7.61,5.602,11.415,16.595,11.415,32.555v63.947c0,6.976,5.708,12.684,12.684,12.684h32.344h41.434h11.521
			c6.342,0,12.578,2.431,17.652,6.659C352.291,314.451,355.884,324.809,354.299,335.062z"/>
	</g>
</g>
</svg>
