<?xml version="1.0" encoding="utf-8"?>
<!-- Generator: Adobe Illustrator 19.2.0, SVG Export Plug-In . SVG Version: 6.00 Build 0)  -->
<svg version="1.1" id="Capa_1" xmlns="http://www.w3.org/2000/svg" xmlns:xlink="http://www.w3.org/1999/xlink" x="0px" y="0px"
	 viewBox="0 0 439.83 512" enable-background="new 0 0 439.83 512" xml:space="preserve">
<g>
	<g>
		<path fill="#313131" d="M237.159,321.357h-29.272c-10.644,0-19.267-8.622-19.267-19.267s8.622-19.267,19.267-19.267h51.519
			c7.025,0,12.773-5.748,12.773-12.773s-5.748-12.773-12.773-12.773h-24.163v-17.776c0-7.025-5.748-12.773-12.773-12.773
			c-7.025,0-12.773,5.748-12.773,12.773v17.776h-1.81c-24.695,0-44.813,20.118-44.813,44.813s20.118,44.813,44.813,44.813h29.272
			c10.644,0,19.267,8.622,19.267,19.267c0,10.644-8.622,19.267-19.267,19.267h-52.477c-7.025,0-12.773,5.748-12.773,12.773
			c0,7.025,5.748,12.773,12.773,12.773h25.121v18.202c0,7.025,5.748,12.773,12.773,12.773c7.025,0,12.773-5.748,12.773-12.773
			v-18.202h2.129c0.106,0,0.213,0,0.319,0c24.482-0.319,44.175-20.331,44.175-44.813
			C281.973,341.475,261.854,321.357,237.159,321.357z"/>
		<path fill="#313131" d="M414.496,292.404c-13.412-30.869-31.933-60.78-55.351-88.775c-28.314-34.062-56.522-56.842-70.892-67.38
			L342.54,35.553c2.661-5.003,1.81-11.177-2.342-15.115C326.147,6.706,311.245,0,294.64,0c-15.222,0-29.166,5.748-41.301,10.857
			c-9.58,3.938-18.628,7.77-25.973,7.77c-2.235,0-4.151-0.319-6.067-1.064c-25.334-9.261-44.813-15.009-63.654-15.009
			c-23.844,0-44.175,9.58-64.08,30.017c-4.151,4.258-4.79,10.964-1.49,15.967l58.545,88.456
			c-14.477,10.751-42.152,33.317-69.934,66.635c-23.311,27.995-41.939,57.906-55.351,88.775C8.516,331.257,0,371.812,0,412.9
			C0,467.506,44.494,512,99.1,512h241.63c54.606,0,99.1-44.494,99.1-99.1C439.83,371.812,431.315,331.257,414.496,292.404z
			 M119.325,43.217c12.348-10.644,24.163-15.328,38.32-15.328c15.115,0,32.146,5.109,54.819,13.519
			c4.684,1.703,9.686,2.555,14.796,2.555c12.454,0,24.376-4.896,35.765-9.686c10.964-4.577,21.395-8.941,31.508-8.941
			c4.896,0,11.815,0.852,20.544,7.025l-51.094,94.949h-88.988L119.325,43.217z M340.73,486.453H99.1
			c-40.556,0-73.553-32.998-73.553-73.553c0-68.231,25.015-132.95,74.192-192.346c31.082-37.575,62.696-60.886,72.276-67.699h95.588
			c9.686,6.706,41.194,30.124,72.276,67.699c49.284,59.396,74.192,124.008,74.192,192.346
			C414.284,453.455,381.286,486.453,340.73,486.453z"/>
	</g>
</g>
</svg>
