<?xml version="1.0" encoding="utf-8"?>
<!-- Generator: Adobe Illustrator 19.2.0, SVG Export Plug-In . SVG Version: 6.00 Build 0)  -->
<svg version="1.1" id="Layer_1" xmlns="http://www.w3.org/2000/svg" xmlns:xlink="http://www.w3.org/1999/xlink" x="0px" y="0px"
	 viewBox="0 0 12.469 2.153" enable-background="new 0 0 12.469 2.153" xml:space="preserve">
<g>
	<g>
		<path fill="#EC1C22" d="M4.157,0.787c0.158,0,0.286,0.128,0.286,0.286c0,0.158-0.128,0.286-0.286,0.286
			c-0.158,0-0.286-0.128-0.286-0.286C3.871,0.915,3.999,0.787,4.157,0.787 M4.157,0.548c-0.29,0-0.525,0.235-0.525,0.525
			c0,0.29,0.235,0.525,0.525,0.525s0.525-0.235,0.525-0.525C4.682,0.783,4.447,0.548,4.157,0.548L4.157,0.548z"/>
		<path fill="#EC1C22" d="M8.694,0.787c0.158,0,0.286,0.128,0.286,0.286c0,0.158-0.128,0.286-0.286,0.286
			c-0.158,0-0.286-0.128-0.286-0.286C8.407,0.915,8.536,0.787,8.694,0.787 M8.694,0.548c-0.29,0-0.525,0.235-0.525,0.525
			s0.235,0.525,0.525,0.525c0.29,0,0.525-0.235,0.525-0.525S8.983,0.548,8.694,0.548L8.694,0.548z"/>
		<path fill="#EC1C22" d="M1.109,0c0.019,0.009,0.034,0.023,0.049,0.038c0.12,0.119,0.24,0.238,0.36,0.357
			C1.522,0.399,1.526,0.402,1.53,0.407C1.539,0.416,1.548,0.426,1.541,0.44C1.535,0.453,1.522,0.451,1.51,0.451
			c-0.051,0-0.102,0-0.153,0c-0.04,0-0.059,0.018-0.059,0.058c0,0.091,0,0.182,0,0.273c0,0.048-0.018,0.068-0.066,0.068
			c-0.092,0.001-0.184,0.001-0.276,0c-0.044,0-0.063-0.019-0.063-0.063c0-0.091,0-0.182,0-0.273c0-0.046-0.018-0.063-0.064-0.063
			c-0.053,0-0.105,0-0.158,0c-0.012,0-0.027,0.002-0.033-0.012C0.633,0.425,0.643,0.414,0.653,0.404
			C0.782,0.276,0.912,0.148,1.042,0.02C1.05,0.012,1.06,0.007,1.069,0C1.082,0,1.096,0,1.109,0z"/>
		<path fill="#EC1C22" d="M1.074,2.153C1.057,2.142,1.043,2.129,1.029,2.115c-0.122-0.123-0.245-0.247-0.368-0.37
			C0.654,1.738,0.643,1.732,0.648,1.72c0.005-0.012,0.017-0.012,0.028-0.012c0.052,0,0.104,0,0.155,0
			c0.044,0,0.062-0.019,0.063-0.063c0-0.098,0-0.196,0-0.293c0-0.048,0.018-0.066,0.067-0.066c0.089,0,0.179,0,0.268,0
			c0.051,0,0.069,0.018,0.069,0.07c0,0.094,0,0.187,0,0.281c0,0.056,0.016,0.072,0.071,0.072c0.044,0,0.089,0,0.133,0
			c0.012,0,0.025,0,0.031,0.012c0.006,0.013-0.007,0.019-0.014,0.026c-0.125,0.126-0.25,0.251-0.375,0.377
			c-0.012,0.012-0.025,0.022-0.04,0.03C1.094,2.153,1.084,2.153,1.074,2.153z"/>
		<path fill="#EC1C22" d="M0,1.059C0.008,1.044,0.019,1.032,0.031,1.02c0.125-0.123,0.25-0.247,0.374-0.37
			c0.01-0.01,0.02-0.027,0.037-0.02C0.46,0.637,0.456,0.656,0.456,0.672c0,0.268,0,0.537,0,0.805c0,0.007,0,0.013-0.001,0.02
			C0.452,1.516,0.44,1.522,0.423,1.512C0.416,1.508,0.41,1.502,0.404,1.496C0.275,1.367,0.147,1.238,0.018,1.109
			C0.012,1.103,0.006,1.096,0,1.089C0,1.079,0,1.069,0,1.059z"/>
		<path fill="#EC1C22" d="M2.662,0.755H2.569l0-0.191c0,0,0.15-0.002,0.21,0c0.063,0.001,0.096,0.032,0.098,0.095
			c0.003,0.089,0.001,0.31,0.001,0.31h0.396c0,0-0.001-0.205,0-0.29C3.275,0.596,3.307,0.564,3.39,0.563
			c0.056-0.001,0.195,0.001,0.195,0.001l0,0.189L3.492,0.755l0.001,0.819l-0.219,0l0.001-0.406H2.879L2.88,1.573h-0.22L2.662,0.755z
			"/>
		<path fill="#EC1C22" d="M1.737,1.07c0-0.13,0-0.261,0-0.391c0-0.008-0.001-0.017,0.001-0.025c0.004-0.017,0.013-0.021,0.027-0.009
			C1.773,0.651,1.78,0.659,1.788,0.667c0.121,0.119,0.243,0.237,0.364,0.356c0.012,0.012,0.024,0.023,0.027,0.041
			c0.003,0.018-0.003,0.032-0.016,0.045c-0.13,0.129-0.26,0.258-0.39,0.387C1.766,1.502,1.76,1.51,1.749,1.506
			C1.738,1.502,1.737,1.491,1.737,1.481c0-0.049,0-0.099,0-0.148C1.737,1.245,1.737,1.157,1.737,1.07z"/>
		<path fill="#EC1C22" d="M12.406,1.383c0,0-0.18-0.502-0.261-0.725c-0.034-0.093-0.049-0.086-0.081-0.086
			c-0.048,0-0.103-0.002-0.119-0.002c-0.041,0-0.057,0.011-0.07,0.048C11.789,0.859,11.7,1.1,11.614,1.341
			c-0.01,0.028-0.019,0.041-0.019,0.041h-0.066l0,0.199c0,0,0.11,0.001,0.15,0c0.054-0.001,0.089-0.026,0.108-0.077
			c0.018-0.05,0.071-0.177,0.071-0.177h0.294c0,0,0.051,0.129,0.069,0.177c0.019,0.051,0.054,0.076,0.107,0.077
			c0.047,0.001,0.095,0,0.142,0c0-0.066,0-0.199,0-0.199L12.406,1.383L12.406,1.383z M11.913,1.136L12,0.866l0.008,0.001l0.088,0.27
			L11.913,1.136z"/>
		<path fill="#EC1C22" d="M5.456,1.064C5.43,1.046,5.425,1.037,5.448,1.01c0.13-0.159,0.058-0.379-0.14-0.433
			c-0.038-0.01-0.07-0.012-0.117-0.012c-0.072,0-0.455-0.001-0.455-0.001l0,0.183h0.092c0,0-0.001,0.473-0.001,0.685
			c0,0.021,0.001,0.042,0.005,0.063C4.84,1.547,4.868,1.573,4.92,1.574c0.087,0.002,0.175,0,0.262,0c0.003,0,0.005,0,0.008,0
			c0.091,0.005,0.176-0.014,0.251-0.068C5.589,1.398,5.597,1.163,5.456,1.064z M5.047,0.755c0,0,0.095-0.001,0.151-0.001
			c0.047,0,0.094,0.041,0.094,0.103c0,0.062-0.03,0.105-0.102,0.105c-0.024,0-0.145-0.001-0.145-0.001L5.047,0.755z M5.327,1.273
			c-0.005,0.06-0.036,0.092-0.104,0.103C5.164,1.375,5.106,1.375,5.047,1.374c0-0.077,0-0.154,0-0.23
			c0.064-0.006,0.127-0.006,0.191-0.001C5.307,1.166,5.332,1.204,5.327,1.273z"/>
		<path fill="#EC1C22" d="M6.552,1.401c0-0.016-0.005-0.027-0.023-0.024C6.495,1.382,6.486,1.36,6.476,1.333
			c-0.081-0.225-0.163-0.45-0.245-0.675c-0.036-0.1-0.036-0.1-0.143-0.093c-0.003,0-0.005,0-0.008,0
			C6.065,0.564,6.048,0.565,6.033,0.563c-0.042-0.007-0.061,0.01-0.075,0.051C5.872,0.856,5.783,1.097,5.697,1.338
			c-0.01,0.028-0.023,0.043-0.054,0.038C5.619,1.372,5.61,1.382,5.611,1.407c0.002,0.046,0.002,0.093,0,0.139
			c-0.001,0.023,0.007,0.03,0.029,0.029c0.042-0.002,0.085,0,0.127-0.001C5.82,1.573,5.854,1.547,5.873,1.498
			C5.891,1.448,5.912,1.4,5.929,1.35C5.937,1.327,5.95,1.32,5.973,1.321C6.009,1.322,6.045,1.32,6.081,1.319
			c0.003,0,0.005,0,0.008,0l0,0l0,0C6.127,1.32,6.165,1.322,6.203,1.321C6.226,1.32,6.237,1.328,6.245,1.348
			c0.019,0.049,0.04,0.098,0.058,0.148c0.016,0.043,0.044,0.073,0.091,0.077c0.045,0.003,0.09,0.001,0.135,0.002
			c0.017,0,0.023-0.007,0.023-0.023C6.552,1.501,6.552,1.451,6.552,1.401z M6.018,1.131c-0.008,0-0.016-0.002-0.019-0.011
			c0.03-0.086,0.066-0.17,0.082-0.26c0.002,0,0.005-0.001,0.007-0.001c0.024,0.092,0.058,0.18,0.088,0.27
			C6.124,1.135,6.071,1.13,6.018,1.131z"/>
		<path fill="#EC1C22" d="M8.019,1.383C8.02,1.177,8.019,0.918,8.019,0.716c0-0.119-0.028-0.146-0.148-0.146
			c-0.115,0-0.767-0.001-0.767-0.001V0.76h0.094C7.197,0.833,7.191,1.581,7.191,1.581h0.215l0.01-0.819h0.377
			c0,0-0.001,0.572,0.002,0.718c0.001,0.063,0.03,0.094,0.089,0.1l0.223,0.001V1.383H8.019z"/>
		<path fill="#EC1C22" d="M10.641,0.572c0,0-0.143-0.001-0.213-0.001c-0.055,0-0.096,0.033-0.096,0.139c0,0.212,0,0.673,0,0.673
			h-0.275l-0.004-0.811H9.838v0.812l-0.278,0c0,0,0-0.685,0-0.727c0-0.054-0.035-0.085-0.087-0.085c-0.064,0-0.223,0-0.223,0v0.191
			h0.095c0,0-0.001,0.476,0,0.693c0,0.095,0.031,0.126,0.127,0.126c0.159,0,0.318,0,0.477,0c0.163,0,0.326,0,0.489,0
			c0.076,0,0.105-0.028,0.112-0.104c0.001-0.016,0.004-0.715,0.004-0.715h0.087V0.572z"/>
		<path fill="#EC1C22" d="M11.611,0.681C11.61,0.6,11.582,0.571,11.501,0.57c-0.228-0.001-0.455-0.001-0.683,0
			c-0.071,0-0.099,0.027-0.102,0.097c-0.002,0.037-0.003,0.182-0.003,0.182h0.207V0.755h0.135v0.827h0.215V1.571
			c0.003-0.006,0-0.816,0-0.816h0.135V0.85h0.207C11.611,0.85,11.611,0.698,11.611,0.681z"/>
	</g>
</g>
</svg>
