<?xml version="1.0" encoding="utf-8"?>
<!-- Generator: Adobe Illustrator 19.2.0, SVG Export Plug-In . SVG Version: 6.00 Build 0)  -->
<svg version="1.1" id="Capa_1" xmlns="http://www.w3.org/2000/svg" xmlns:xlink="http://www.w3.org/1999/xlink" x="0px" y="0px"
	 viewBox="0 0 512 334.213" enable-background="new 0 0 512 334.213" xml:space="preserve">
<path fill="#313131" d="M511.779,255.528c-1.998-10.183-19.644-99.866-24.003-112.96c-10.48-31.481-35.66-67.319-67.354-95.866
	C387.469,17.023,353.328,0,326.75,0H68.214c-13.399,0-24.3,10.901-24.3,24.3v38.182H26.013c-6.565,0-11.887,5.322-11.887,11.887
	s5.322,11.887,11.887,11.887h17.9v28.356H11.887C5.322,114.613,0,119.935,0,126.5c0,6.565,5.322,11.887,11.887,11.887h32.026
	v119.428c0,13.399,10.901,24.299,24.3,24.299H97.85c4.431,29.448,29.9,52.099,60.563,52.099s56.132-22.651,60.562-52.099h109.037
	c4.43,29.448,29.9,52.099,60.563,52.099s56.132-22.651,60.562-52.099h38.56c13.4,0,24.301-10.9,24.301-24.299
	C512,257.049,511.926,256.283,511.779,255.528z M463.857,146.245l-122.493-0.001V25.9C384.759,37.555,444.907,95.29,463.857,146.245
	z M158.415,310.439c-20.663,0-37.475-16.811-37.475-37.475c0-20.663,16.812-37.474,37.475-37.474s37.474,16.811,37.474,37.474
	C195.888,293.629,179.078,310.439,158.415,310.439z M388.577,310.439c-20.663-0.001-37.475-16.812-37.475-37.475
	c0-20.663,16.812-37.474,37.475-37.474c20.663,0,37.474,16.811,37.474,37.474C426.051,293.629,409.241,310.439,388.577,310.439z
	 M487.112,258.341c-9.913,0-39.064,0-39.064,0c-6.575-26.732-30.738-46.624-59.471-46.624s-52.897,19.892-59.472,46.624h-111.22
	c-6.575-26.732-30.738-46.624-59.471-46.624s-52.897,19.892-59.472,46.624H68.214c-0.289,0-0.525-0.236-0.525-0.524V138.388h145.681
	c6.565,0,11.887-5.322,11.887-11.887c0-6.565-5.322-11.887-11.887-11.887H67.688V86.258h67.055c6.565,0,11.887-5.322,11.887-11.887
	c0-6.565-5.322-11.887-11.887-11.887H67.688V24.301c0-0.289,0.236-0.525,0.525-0.525h249.377v134.356
	c0,6.565,5.321,11.887,11.887,11.887l140.534,0.001c5.069,23.114,12.022,60.162,17.941,87.588
	C488.071,258.16,487.726,258.341,487.112,258.341z"/>
</svg>
