<?xml version="1.0" encoding="utf-8"?>
<!-- Generator: Adobe Illustrator 19.2.0, SVG Export Plug-In . SVG Version: 6.00 Build 0)  -->
<svg version="1.1" xmlns="http://www.w3.org/2000/svg" xmlns:xlink="http://www.w3.org/1999/xlink" x="0px" y="0px"
	 viewBox="0 0 277.795 306.142" enable-background="new 0 0 277.795 306.142" xml:space="preserve">
<g id="Слой_2">
	<rect fill="#FFD055" width="277.795" height="306.142"/>
</g>
<g id="Слой_1">
	<g>
		
			<rect x="131.872" y="109.104" transform="matrix(0.7071 -0.7071 0.7071 0.7071 -41.9749 133.5347)" fill="#FFFFFF" width="16.663" height="16.663"/>
		
			<rect x="134.109" y="50.985" transform="matrix(0.7071 -0.7071 0.7071 0.7071 0.7032 115.857)" fill="#FFFFFF" width="12.189" height="12.189"/>
		
			<rect x="62.253" y="50.984" transform="matrix(0.7071 -0.7071 0.7071 0.7071 -20.3424 65.0467)" fill="#FFFFFF" width="12.189" height="12.189"/>
		
			<rect x="205.966" y="50.987" transform="matrix(0.7071 -0.7071 0.7071 0.7071 21.7482 166.6683)" fill="#FFFFFF" width="12.189" height="12.189"/>
		<path fill="#FFFFFF" d="M175.293,71.634l-18.688,18.689l-16.4-16.4l-16.191,16.191l-18.478-18.48L87.17,90.002L68.348,71.18
			v78.478h143.713V71.18L193.45,89.791L175.293,71.634z M175.293,79.389l14.279,14.279l-14.545,14.545l-14.279-14.279
			L175.293,79.389z M105.537,79.389l14.544,14.546l-14.489,14.489L91.047,93.879L105.537,79.389z M206.577,84.421v59.752H73.832
			V84.421l9.458,9.458l-0.056,0.056l22.302,22.3l0.055-0.056l0.056,0.056l34.557-34.557l34.556,34.557l0.266,0.266l0.266-0.266
			l22.302-22.3l-0.266-0.266L206.577,84.421z"/>
		<g>
			<path fill="#FFFFFF" d="M92.077,183.94c0-4.348-3.131-9.654-10.088-9.654c-4.042,0-5.912,0-6.739,0h-6.783v28.261h6.783v-9.003
				c0.958,0,2.044,0,3.217,0l5.912,9.003h7.61l-6.086-9.654C90.38,191.33,92.077,187.114,92.077,183.94z M85.162,186.331
				c-0.26,0.304-0.606,0.519-1,0.739c-0.564,0.26-1.347,0.391-2.216,0.391h-6.697v-7.087h6.739c1.436,0,2.435,0.348,3.088,1.13
				c0.695,0.738,0.913,1.737,0.913,2.435C85.989,184.591,85.771,185.59,85.162,186.331z"/>
			<path fill="#FFFFFF" d="M111.688,174.419c-8.042,0-14.564,6.52-14.564,14.564c0,8.044,6.521,14.564,14.564,14.564
				c8.044,0,14.565-6.52,14.565-14.564C126.253,180.937,119.732,174.419,111.688,174.419z M117.689,194.983
				c-1.61,1.565-3.739,2.479-6,2.479c-2.26,0-4.39-0.914-5.998-2.479c-1.609-1.609-2.479-3.74-2.479-6c0-2.26,0.871-4.391,2.479-6
				c1.609-1.609,3.739-2.479,5.998-2.479c2.262,0,4.391,0.871,6,2.479c1.609,1.609,2.479,3.741,2.479,6
				S119.297,193.374,117.689,194.983z"/>
			<polygon fill="#FFFFFF" points="146.053,174.287 140.226,181.374 134.358,174.287 125.443,174.287 136.791,187.941 
				136.791,202.548 143.574,202.548 143.574,187.941 154.966,174.287 			"/>
			<path fill="#FFFFFF" d="M154.423,202.548h7.825l2.044-3.956h10.653l2.042,3.956h7.826l-15.175-28.261L154.423,202.548z
				 M167.03,193.286l2.609-4.955l2.565,4.955H167.03z"/>
			<polygon fill="#FFFFFF" points="198.333,196.46 198.333,174.287 191.55,174.287 191.55,202.548 198.291,202.548 198.333,202.548 
				211.943,202.548 211.943,196.46 			"/>
		</g>
		<g>
			<path fill="#FFFFFF" d="M42.229,221.236c-4.042,0-5.912,0-6.783,0h-6.783v19.262v8.999h6.783v-8.999c1.914,0,4.174,0,6.697,0
				c7.477,0,10.172-5.609,10.172-9.61C52.316,226.542,49.186,221.236,42.229,221.236z M45.403,233.28
				c-0.304,0.304-0.609,0.523-1,0.739c-0.609,0.263-1.348,0.391-2.26,0.391h-6.697v-7.087h6.783c1.391,0,2.391,0.348,3.088,1.13
				c0.65,0.738,0.912,1.74,0.912,2.435C46.229,231.54,46.011,232.542,45.403,233.28z"/>
			<path fill="#FFFFFF" d="M53.721,249.497h7.825l2.044-3.956h10.653l2.042,3.956h7.826l-15.175-28.261L53.721,249.497z
				 M66.329,240.24l2.609-4.959l2.565,4.959H66.329z"/>
			<path fill="#FFFFFF" d="M115.916,230.89c0-4.348-3.131-9.654-10.088-9.654c-4.042,0-5.912,0-6.739,0h-6.783v28.261h6.783v-8.999
				c0.956,0,2.044,0,3.217,0l5.912,8.999h7.61l-6.086-9.649C114.22,238.279,115.916,234.063,115.916,230.89z M109.002,233.28
				c-0.26,0.304-0.609,0.523-1,0.739c-0.564,0.263-1.347,0.391-2.216,0.391h-6.697v-7.087h6.739c1.435,0,2.435,0.348,3.088,1.13
				c0.695,0.738,0.913,1.74,0.913,2.435C109.829,231.54,109.611,232.542,109.002,233.28z"/>
			<path fill="#FFFFFF" d="M155.325,235.76c0-8.044-6.521-14.568-14.565-14.568c-8.042,0-14.565,6.523-14.565,14.568
				c0,8.045,6.523,14.564,14.565,14.564c2.609,0,5.044-0.695,7.13-1.868l3.088,3.086l4.824-4.827l-2.912-2.871
				C154.41,241.497,155.325,238.714,155.325,235.76z M148.412,239.369l-2.915-2.915l-4.783,4.827l2.565,2.563
				c-0.783,0.263-1.651,0.391-2.521,0.391c-2.26,0-4.391-0.91-6-2.475c-1.609-1.61-2.477-3.74-2.477-6c0-2.26,0.868-4.391,2.477-6
				c1.609-1.61,3.74-2.479,6-2.479c2.262,0,4.391,0.87,6,2.479c1.609,1.609,2.477,3.74,2.477,6
				C149.236,237.022,148.977,238.24,148.412,239.369z"/>
			<path fill="#FFFFFF" d="M180.284,237.54c0,0.871-0.132,1.61-0.479,2.307c-0.305,0.651-0.783,1.213-1.347,1.737
				c-0.565,0.523-1.306,0.915-2.044,1.218c-0.653,0.22-1.348,0.391-1.956,0.391c-1,0-2.609-0.479-3.871-1.565
				c-1.259-1.042-1.868-2.435-1.868-4.172v-16.221h-6.306c0,5.218,0,11.913,0,16.221c0,7.996,7.001,12.04,12.045,12.04
				c5.477,0,12.13-4.391,12.13-11.957c0-4.607,0-11.214,0-16.304h-6.304V237.54z"/>
			<polygon fill="#FFFFFF" points="199.825,249.497 219.564,249.497 219.564,243.413 206.607,243.413 206.607,238.411 
				217.608,238.411 217.608,232.323 206.607,232.323 206.607,227.324 219.564,227.324 219.564,221.236 199.825,221.236 			"/>
			<polygon fill="#FFFFFF" points="230.766,221.236 230.766,228.019 238.113,228.019 238.113,249.497 244.896,249.497 
				244.896,228.019 252.244,228.019 252.244,221.236 			"/>
		</g>
	</g>
</g>
</svg>
