<?xml version="1.0" encoding="utf-8"?>
<!-- Generator: Adobe Illustrator 17.0.1, SVG Export Plug-In . SVG Version: 6.00 Build 0)  -->
<!DOCTYPE svg PUBLIC "-//W3C//DTD SVG 1.1//EN" "http://www.w3.org/Graphics/SVG/1.1/DTD/svg11.dtd">
<svg version="1.1" id="Слой_1" xmlns="http://www.w3.org/2000/svg" xmlns:xlink="http://www.w3.org/1999/xlink" x="0px" y="0px"
	 width="193.078px" height="197.008px" viewBox="0 0 193.078 197.008" enable-background="new 0 0 193.078 197.008"
	 xml:space="preserve">
<rect x="90.976" y="105.21" transform="matrix(-0.7071 -0.7071 0.7071 -0.7071 86.4746 257.3637)" fill="#FFD055" width="11.126" height="11.126"/>
<rect x="92.47" y="66.406" transform="matrix(0.7071 0.7071 -0.7071 0.7071 78.1092 -47.6217)" fill="#FFD055" width="8.139" height="8.138"/>
<rect x="44.493" y="66.406" transform="matrix(0.7071 0.7071 -0.7071 0.7071 64.0573 -13.6973)" fill="#FFD055" width="8.139" height="8.138"/>
<rect x="140.446" y="66.406" transform="matrix(0.7071 0.7071 -0.7071 0.7071 92.1611 -81.5461)" fill="#FFD055" width="8.139" height="8.138"/>
<path fill="#FFD055" d="M119.966,80.193l-12.477,12.478l-10.95-10.95l-10.81,10.81L73.392,80.193L61.129,92.457L48.563,79.89v52.398
	h95.952V79.89l-12.426,12.426L119.966,80.193z M119.966,85.372l9.534,9.533l-9.711,9.712l-9.533-9.534L119.966,85.372z
	 M73.392,85.372l9.711,9.711l-9.674,9.674l-9.711-9.711L73.392,85.372z M140.853,88.73v39.894H52.225V88.73l6.315,6.315
	l-0.038,0.037l14.89,14.89l0.037-0.037l0.037,0.037L96.539,86.9l23.072,23.073l0.178,0.177l0.177-0.177l14.89-14.89l-0.177-0.178
	L140.853,88.73z"/>
<g>
	<defs>
		<rect id="SVGID_1_" width="193.078" height="197.008"/>
	</defs>
	<clipPath id="SVGID_2_">
		<use xlink:href="#SVGID_1_"  overflow="visible"/>
	</clipPath>
	<path clip-path="url(#SVGID_2_)" fill="#4A4A4A" d="M191.14,98.3c0.086,1.809-1.311,3.345-3.12,3.431
		c-1.809,0.085-3.344-1.311-3.43-3.12s1.311-3.345,3.12-3.431C189.518,95.094,191.054,96.491,191.14,98.3"/>
	<path clip-path="url(#SVGID_2_)" fill="#4A4A4A" d="M12.61,69.314l5.789-1.545l-1.188,3.816l-5.434,1.559
		c-0.183,0.588-0.352,1.132-0.502,1.614l4.511,1.404l-1.059,3.4L0.56,75.15l1.06-3.398c0.128-0.416,0.419-1.353,1.051-3.38
		c1.085-3.487,4.234-4.229,6.413-3.55C10.675,65.318,12.525,66.827,12.61,69.314 M8.224,73.806l1.045-3.356
		c0.136-0.436,0.192-0.849,0.149-1.173c-0.048-0.229-0.102-0.438-0.215-0.617c-0.275-0.42-0.741-0.684-1.07-0.787
		c-0.348-0.107-0.884-0.155-1.362,0.078c-0.494,0.204-0.826,0.652-1.049,1.371l-1.051,3.379L8.224,73.806z"/>
	<path clip-path="url(#SVGID_2_)" fill="#4A4A4A" d="M22.308,45.564c3.628,2.155,4.824,6.843,2.669,10.471
		c-2.153,3.629-6.842,4.824-10.47,2.669c-3.629-2.156-4.824-6.843-2.669-10.471C13.991,44.604,18.68,43.409,22.308,45.564
		 M20.679,48.31c-1.02-0.605-2.215-0.784-3.372-0.489c-1.155,0.295-2.118,1.023-2.723,2.043c-0.607,1.019-0.784,2.212-0.491,3.368
		c0.295,1.157,1.023,2.121,2.043,2.726c1.019,0.605,2.214,0.784,3.371,0.489c1.136-0.307,2.119-1.023,2.724-2.043
		c0.607-1.02,0.765-2.224,0.489-3.368C22.427,49.878,21.699,48.915,20.679,48.31"/>
	<polygon clip-path="url(#SVGID_2_)" fill="#4A4A4A" points="31.32,34.462 36.89,39.721 34.448,42.307 28.878,37.048 19.587,36.459 
		22.797,33.061 27.613,33.375 27.008,28.602 30.215,25.202 	"/>
	<path clip-path="url(#SVGID_2_)" fill="#4A4A4A" d="M48.574,27.293l-4.53,3.276l0.349,2.31l-3.329,2.406L38.843,18.59l15.143,7.35
		l-3.326,2.406L48.574,27.293z M45.777,25.88l-2.615-1.319l0.416,2.909L45.777,25.88z"/>
	<polygon clip-path="url(#SVGID_2_)" fill="#4A4A4A" points="67.954,16.212 69.194,19.157 62.608,21.925 62.587,21.934 
		59.326,23.305 53.576,9.629 56.858,8.249 61.37,18.98 	"/>
	<path clip-path="url(#SVGID_2_)" fill="#4A4A4A" d="M98.428,4.795c0.107,2.097-1.154,5.111-5.074,5.312
		c-1.32,0.068-2.506,0.129-3.509,0.182l0.245,4.717l-3.555,0.184l-0.245-4.719L85.769,0.377l3.555-0.184
		c0.457-0.022,1.436-0.074,3.555-0.184C96.524-0.178,98.309,2.517,98.428,4.795 M95.237,4.96c-0.02-0.364-0.183-0.88-0.544-1.251
		c-0.387-0.39-0.921-0.548-1.649-0.509l-3.555,0.184l0.192,3.714l3.509-0.18c0.479-0.026,0.861-0.115,1.175-0.266
		c0.199-0.125,0.351-0.248,0.505-0.417C95.168,5.832,95.255,5.303,95.237,4.96"/>
	<path clip-path="url(#SVGID_2_)" fill="#4A4A4A" d="M111.911,14.026l-5.526-0.812l-1.362,1.895l-4.06-0.596l10.052-13.5
		l5.715,15.82l-4.061-0.599L111.911,14.026z M110.895,11.065l-0.952-2.767l-1.733,2.373L110.895,11.065z"/>
	<path clip-path="url(#SVGID_2_)" fill="#4A4A4A" d="M133.019,17.476l1.029,5.902l-3.694-1.519l-1.075-5.551
		c-0.57-0.233-1.098-0.451-1.562-0.642l-1.797,4.37l-3.291-1.353l5.64-13.721l3.291,1.353c0.402,0.164,1.311,0.538,3.273,1.344
		c3.378,1.388,3.839,4.59,2.971,6.7C137.172,15.9,135.506,17.609,133.019,17.476 M128.932,12.71l3.251,1.336
		c0.421,0.174,0.827,0.266,1.154,0.252c0.234-0.027,0.446-0.062,0.633-0.159c0.445-0.238,0.75-0.678,0.879-0.995
		c0.139-0.339,0.233-0.868,0.043-1.365c-0.161-0.509-0.576-0.878-1.274-1.166l-3.273-1.343L128.932,12.71z"/>
	<path clip-path="url(#SVGID_2_)" fill="#4A4A4A" d="M149.771,35.07l-0.341-2.267c-1.249-0.156-2.494-0.621-3.596-1.435
		c-3.398-2.507-4.121-7.296-1.612-10.694c2.507-3.4,7.297-4.121,10.697-1.614c3.397,2.509,4.118,7.299,1.611,10.697
		c-0.921,1.248-2.177,2.14-3.55,2.657l0.336,2.12L149.771,35.07z M148.919,29.417l-0.283-1.883l3.525-0.547l0.322,2.139
		c0.593-0.302,1.082-0.735,1.474-1.267c0.706-0.956,1.003-2.128,0.825-3.308c-0.179-1.182-0.807-2.214-1.763-2.918
		c-0.956-0.706-2.126-1.003-3.308-0.825c-1.18,0.179-2.212,0.807-2.918,1.763c-0.703,0.956-1.001,2.126-0.822,3.308
		c0.19,1.163,0.806,2.212,1.76,2.918C148.099,29.067,148.507,29.285,148.919,29.417"/>
	<path clip-path="url(#SVGID_2_)" fill="#4A4A4A" d="M176.672,40.757c-2.059,1.698-4.734,3.905-6.599,5.446
		c-3.06,2.523-7.058,1.297-8.888-0.917c-1.685-2.042-2.386-6.224,0.851-8.895c1.743-1.438,4.451-3.673,6.563-5.416l2.106,2.552
		l-6.563,5.415c-0.704,0.581-1.064,1.291-1.065,2.151c-0.019,0.873,0.324,1.682,0.66,2.087c0.203,0.247,0.505,0.471,0.811,0.661
		c0.37,0.199,0.774,0.366,1.175,0.421c0.4,0.055,0.788,0.06,1.154-0.035c0.397-0.092,0.74-0.286,1.092-0.576l6.597-5.445
		L176.672,40.757z"/>
	<polygon clip-path="url(#SVGID_2_)" fill="#4A4A4A" points="173.263,57.594 176.35,63.652 173.503,65.102 168.801,55.872 
		182.016,49.139 186.718,58.37 183.873,59.821 180.786,53.762 178.447,54.952 181.067,60.097 178.222,61.547 175.602,56.402 	"/>
	<polygon clip-path="url(#SVGID_2_)" fill="#4A4A4A" points="188.629,75.081 177.766,78.059 176.825,74.628 187.688,71.649 
		186.669,67.934 190.1,66.993 193.078,77.857 189.647,78.797 	"/>
	<path clip-path="url(#SVGID_2_)" fill="#4A4A4A" d="M180.468,127.693l-5.789,1.545l1.188-3.816l5.435-1.559
		c0.182-0.587,0.351-1.132,0.501-1.613l-4.511-1.405l1.058-3.4l14.168,4.412l-1.06,3.399c-0.128,0.415-0.419,1.352-1.051,3.379
		c-1.085,3.487-4.234,4.229-6.413,3.55C182.403,131.689,180.553,130.181,180.468,127.693 M184.854,123.201l-1.045,3.356
		c-0.136,0.437-0.192,0.85-0.149,1.173c0.048,0.229,0.102,0.438,0.215,0.617c0.275,0.42,0.741,0.684,1.07,0.788
		c0.348,0.107,0.884,0.154,1.362-0.079c0.494-0.204,0.826-0.652,1.049-1.37l1.051-3.38L184.854,123.201z"/>
	<path clip-path="url(#SVGID_2_)" fill="#4A4A4A" d="M170.77,151.444c-3.628-2.155-4.823-6.844-2.669-10.472
		c2.153-3.628,6.842-4.824,10.47-2.669c3.629,2.155,4.824,6.844,2.669,10.472C179.087,152.404,174.398,153.599,170.77,151.444
		 M172.399,148.698c1.02,0.605,2.215,0.784,3.372,0.489c1.155-0.295,2.118-1.023,2.725-2.043c0.605-1.019,0.782-2.212,0.487-3.369
		c-0.293-1.158-1.021-2.121-2.041-2.726c-1.019-0.605-2.214-0.784-3.371-0.489c-1.136,0.307-2.119,1.023-2.724,2.043
		c-0.607,1.02-0.765,2.224-0.489,3.37C170.651,147.13,171.379,148.093,172.399,148.698"/>
	<polygon clip-path="url(#SVGID_2_)" fill="#4A4A4A" points="161.758,162.546 156.188,157.287 158.63,154.7 164.199,159.96 
		173.49,160.549 170.281,163.947 165.465,163.633 166.07,168.406 162.863,171.806 	"/>
	<path clip-path="url(#SVGID_2_)" fill="#4A4A4A" d="M144.504,169.715l4.53-3.276l-0.349-2.31l3.329-2.406l2.221,16.695
		l-15.143-7.35l3.326-2.406L144.504,169.715z M147.301,171.128l2.615,1.319l-0.416-2.909L147.301,171.128z"/>
	<polygon clip-path="url(#SVGID_2_)" fill="#4A4A4A" points="125.124,180.796 123.884,177.852 130.47,175.083 130.491,175.074 
		133.752,173.703 139.502,187.38 136.22,188.759 131.708,178.029 	"/>
	<path clip-path="url(#SVGID_2_)" fill="#4A4A4A" d="M94.65,192.213c-0.107-2.097,1.155-5.111,5.074-5.312
		c1.32-0.068,2.506-0.129,3.509-0.182l-0.245-4.717l3.555-0.184l0.245,4.719l0.521,10.094l-3.555,0.184
		c-0.457,0.022-1.436,0.074-3.555,0.184C96.554,197.186,94.769,194.491,94.65,192.213 M97.841,192.048
		c0.019,0.364,0.183,0.88,0.544,1.251c0.387,0.39,0.921,0.547,1.649,0.509l3.555-0.184l-0.192-3.714l-3.509,0.18
		c-0.479,0.025-0.864,0.115-1.175,0.266c-0.199,0.125-0.351,0.248-0.502,0.417C97.911,191.176,97.823,191.705,97.841,192.048"/>
	<path clip-path="url(#SVGID_2_)" fill="#4A4A4A" d="M81.167,182.982l5.526,0.812l1.362-1.895l4.061,0.596l-10.053,13.5
		l-5.715-15.82l4.061,0.599L81.167,182.982z M82.183,185.943l0.952,2.767l1.733-2.373L82.183,185.943z"/>
	<path clip-path="url(#SVGID_2_)" fill="#4A4A4A" d="M60.059,179.533l-1.029-5.902l3.694,1.519l1.075,5.551
		c0.57,0.233,1.098,0.451,1.562,0.642l1.797-4.371l3.291,1.354l-5.64,13.721l-3.291-1.353c-0.402-0.164-1.311-0.538-3.272-1.344
		c-3.379-1.389-3.84-4.59-2.972-6.701C55.906,181.109,57.572,179.4,60.059,179.533 M64.146,184.298l-3.251-1.336
		c-0.421-0.174-0.827-0.266-1.154-0.253c-0.234,0.028-0.446,0.063-0.633,0.16c-0.445,0.238-0.75,0.678-0.879,0.995
		c-0.138,0.339-0.233,0.868-0.043,1.364c0.161,0.51,0.577,0.879,1.274,1.166l3.273,1.344L64.146,184.298z"/>
	<path clip-path="url(#SVGID_2_)" fill="#4A4A4A" d="M43.307,161.938l0.341,2.267c1.249,0.156,2.494,0.621,3.596,1.435
		c3.398,2.507,4.121,7.296,1.612,10.694c-2.507,3.4-7.297,4.121-10.694,1.614c-3.4-2.509-4.121-7.299-1.614-10.696
		c0.921-1.249,2.177-2.141,3.55-2.658l-0.336-2.12L43.307,161.938z M44.159,167.591l0.284,1.883l-3.526,0.547l-0.322-2.139
		c-0.593,0.302-1.082,0.735-1.474,1.267c-0.706,0.956-1.003,2.128-0.825,3.308c0.179,1.182,0.807,2.214,1.763,2.918
		c0.954,0.706,2.126,1.003,3.308,0.825c1.18-0.179,2.212-0.807,2.918-1.763c0.703-0.956,1.001-2.126,0.822-3.308
		c-0.19-1.163-0.806-2.212-1.76-2.918C44.979,167.941,44.57,167.723,44.159,167.591"/>
	<path clip-path="url(#SVGID_2_)" fill="#4A4A4A" d="M16.406,156.251c2.059-1.699,4.734-3.905,6.599-5.446
		c3.06-2.525,7.058-1.299,8.888,0.916c1.685,2.043,2.386,6.225-0.851,8.896c-1.743,1.438-4.451,3.673-6.563,5.415l-2.106-2.551
		l6.563-5.415c0.704-0.581,1.065-1.292,1.065-2.151c0.019-0.873-0.324-1.682-0.659-2.088c-0.204-0.246-0.506-0.47-0.812-0.66
		c-0.37-0.199-0.774-0.367-1.175-0.421c-0.4-0.055-0.788-0.06-1.153,0.035c-0.397,0.091-0.741,0.286-1.093,0.575l-6.597,5.446
		L16.406,156.251z"/>
	<polygon clip-path="url(#SVGID_2_)" fill="#4A4A4A" points="19.815,139.41 16.728,133.353 19.576,131.901 24.277,141.133 
		11.062,147.866 6.36,138.634 9.206,137.185 12.293,143.243 14.631,142.053 12.011,136.908 14.856,135.458 17.476,140.603 	"/>
	<polygon clip-path="url(#SVGID_2_)" fill="#4A4A4A" points="4.449,121.924 15.314,118.946 16.255,122.377 5.389,125.356 
		6.409,129.071 2.978,130.012 0,119.148 3.431,118.208 	"/>
	<path clip-path="url(#SVGID_2_)" fill="#4A4A4A" d="M8.645,98.266c0.086,1.809-1.311,3.344-3.119,3.43
		c-1.809,0.086-3.345-1.311-3.431-3.119c-0.086-1.809,1.311-3.345,3.12-3.431S8.559,96.457,8.645,98.266"/>
</g>
</svg>
