<?xml version="1.0" encoding="utf-8"?>
<!-- Generator: Adobe Illustrator 17.0.1, SVG Export Plug-In . SVG Version: 6.00 Build 0)  -->
<!DOCTYPE svg PUBLIC "-//W3C//DTD SVG 1.1//EN" "http://www.w3.org/Graphics/SVG/1.1/DTD/svg11.dtd">
<svg version="1.1" id="Слой_1" xmlns="http://www.w3.org/2000/svg" xmlns:xlink="http://www.w3.org/1999/xlink" x="0px" y="0px"
	 width="132.162px" height="120.045px" viewBox="0 0 132.162 120.045" enable-background="new 0 0 132.162 120.045"
	 xml:space="preserve">
<rect x="61.009" y="35.847" transform="matrix(-0.7071 -0.7071 0.7071 -0.7071 83.7263 116.2244)" fill="#FFFFFF" width="9.85" height="9.85"/>
<rect x="62.331" y="1.493" transform="matrix(0.7071 -0.7071 0.7071 0.7071 15.7087 48.1148)" fill="#FFFFFF" width="7.205" height="7.205"/>
<rect x="19.856" y="1.493" transform="matrix(0.7071 -0.7071 0.7071 0.7071 3.2679 18.08)" fill="#FFFFFF" width="7.205" height="7.205"/>
<rect x="104.807" y="1.493" transform="matrix(0.7071 -0.7071 0.7071 0.7071 28.1495 78.1495)" fill="#FFFFFF" width="7.205" height="7.205"/>
<path fill="#FFFFFF" d="M86.675,13.698L75.628,24.746l-9.694-9.695l-9.571,9.571L45.441,13.698L34.584,24.556L23.458,13.43v46.39
	h84.951V13.43L97.408,24.431L86.675,13.698z M86.675,18.283l8.44,8.441l-8.597,8.598l-8.44-8.441L86.675,18.283z M45.441,18.283
	l8.597,8.598l-8.564,8.565l-8.598-8.598L45.441,18.283z M105.167,21.257v35.32H26.7v-35.32l5.591,5.591l-0.033,0.033l13.183,13.182
	l0.033-0.033l0.033,0.033l20.427-20.427l20.427,20.427l0.157,0.157l0.157-0.157l13.183-13.182L99.7,26.724L105.167,21.257z"/>
<g>
	<defs>
		<rect id="SVGID_1_" width="132.162" height="120.045"/>
	</defs>
	<use xlink:href="#SVGID_1_"  overflow="visible" fill="#FFFFFF"/>
	<clipPath id="SVGID_2_">
		<use xlink:href="#SVGID_1_"  overflow="visible"/>
	</clipPath>
	<path clip-path="url(#SVGID_2_)" fill="#FFFFFF" d="M37.484,80.085c0-2.57-1.851-5.707-5.963-5.707h-3.983h-4.01v16.706h4.01
		v-5.322h1.901l3.495,5.322h4.498l-3.597-5.706C36.481,84.453,37.484,81.961,37.484,80.085 M33.397,81.498
		c-0.153,0.18-0.359,0.307-0.591,0.437c-0.334,0.153-0.796,0.231-1.31,0.231h-3.958v-4.189h3.983c0.848,0,1.439,0.205,1.825,0.668
		c0.411,0.436,0.54,1.026,0.54,1.44C33.886,80.469,33.757,81.059,33.397,81.498"/>
	<path clip-path="url(#SVGID_2_)" fill="#FFFFFF" d="M49.077,74.456c-4.754,0-8.609,3.854-8.609,8.609
		c0,4.755,3.855,8.609,8.609,8.609c4.755,0,8.61-3.854,8.61-8.609C57.687,78.31,53.832,74.456,49.077,74.456 M52.624,86.612
		c-0.951,0.925-2.21,1.465-3.547,1.465c-1.336,0-2.595-0.54-3.546-1.465c-0.951-0.951-1.465-2.211-1.465-3.547
		s0.514-2.596,1.465-3.547c0.951-0.951,2.21-1.465,3.546-1.465c1.337,0,2.596,0.514,3.547,1.465
		c0.951,0.951,1.465,2.211,1.465,3.547S53.575,85.661,52.624,86.612"/>
	<polygon clip-path="url(#SVGID_2_)" fill="#FFFFFF" points="69.391,74.378 65.947,78.568 62.478,74.378 57.208,74.378 
		63.916,82.45 63.916,91.084 67.926,91.084 67.926,82.45 74.66,74.378 	"/>
	<path clip-path="url(#SVGID_2_)" fill="#FFFFFF" d="M74.338,91.084h4.625l1.208-2.339h6.298l1.207,2.339h4.626l-8.97-16.706
		L74.338,91.084z M81.79,85.609l1.542-2.929l1.517,2.929H81.79z"/>
	<polygon clip-path="url(#SVGID_2_)" fill="#FFFFFF" points="100.295,87.485 100.295,74.378 96.285,74.378 96.285,91.084 
		100.27,91.084 100.295,91.084 108.34,91.084 108.34,87.485 	"/>
	<path clip-path="url(#SVGID_2_)" fill="#FFFFFF" d="M8.019,102.131h-4.01H0v11.387v5.319h4.009v-5.319h3.959
		c4.42,0,6.013-3.316,6.013-5.68C13.981,105.267,12.131,102.131,8.019,102.131 M9.895,109.251c-0.179,0.179-0.36,0.309-0.591,0.437
		c-0.36,0.155-0.797,0.231-1.336,0.231H4.009v-4.189h4.01c0.822,0,1.414,0.205,1.825,0.668c0.385,0.436,0.539,1.029,0.539,1.44
		C10.383,108.222,10.255,108.814,9.895,109.251"/>
	<path clip-path="url(#SVGID_2_)" fill="#FFFFFF" d="M14.812,118.837h4.626l1.208-2.339h6.297l1.208,2.339h4.626l-8.97-16.706
		L14.812,118.837z M22.265,113.364l1.542-2.931l1.516,2.931H22.265z"/>
	<path clip-path="url(#SVGID_2_)" fill="#FFFFFF" d="M51.576,107.838c0-2.571-1.851-5.707-5.963-5.707h-3.984H37.62v16.706h4.009
		v-5.319h1.902l3.495,5.319h4.498l-3.597-5.704C50.573,112.206,51.576,109.714,51.576,107.838 M47.489,109.251
		c-0.153,0.179-0.36,0.309-0.591,0.437c-0.334,0.155-0.797,0.231-1.31,0.231h-3.959v-4.189h3.984c0.848,0,1.439,0.205,1.825,0.668
		c0.411,0.436,0.54,1.029,0.54,1.44C47.978,108.222,47.849,108.814,47.489,109.251"/>
	<path clip-path="url(#SVGID_2_)" fill="#FFFFFF" d="M74.871,110.717c0-4.756-3.855-8.612-8.61-8.612
		c-4.754,0-8.61,3.856-8.61,8.612c0,4.755,3.856,8.609,8.61,8.609c1.542,0,2.982-0.411,4.215-1.105l1.825,1.824l2.852-2.853
		l-1.721-1.697C74.331,114.108,74.871,112.463,74.871,110.717 M70.785,112.85l-1.723-1.723l-2.827,2.853l1.517,1.515
		c-0.463,0.156-0.976,0.232-1.491,0.232c-1.336,0-2.596-0.538-3.547-1.463c-0.951-0.952-1.464-2.212-1.464-3.547
		c0-1.336,0.513-2.596,1.464-3.547c0.951-0.951,2.211-1.466,3.547-1.466c1.337,0,2.596,0.515,3.547,1.466
		c0.951,0.951,1.464,2.211,1.464,3.547C71.272,111.463,71.119,112.182,70.785,112.85"/>
	<path clip-path="url(#SVGID_2_)" fill="#FFFFFF" d="M89.625,111.769c0,0.515-0.078,0.951-0.283,1.364
		c-0.181,0.385-0.463,0.717-0.797,1.027c-0.333,0.309-0.771,0.54-1.208,0.72c-0.386,0.129-0.796,0.231-1.156,0.231
		c-0.591,0-1.543-0.283-2.288-0.925c-0.745-0.616-1.105-1.44-1.105-2.466v-9.589h-3.727v9.589c0,4.726,4.138,7.117,7.12,7.117
		c3.238,0,7.17-2.596,7.17-7.068v-9.638h-3.726V111.769z"/>
	<polygon clip-path="url(#SVGID_2_)" fill="#FFFFFF" points="101.176,118.837 112.845,118.837 112.845,115.24 105.185,115.24 
		105.185,112.284 111.688,112.284 111.688,108.685 105.185,108.685 105.185,105.73 112.845,105.73 112.845,102.131 101.176,102.131 
			"/>
	<polygon clip-path="url(#SVGID_2_)" fill="#FFFFFF" points="119.466,102.131 119.466,106.14 123.809,106.14 123.809,118.837 
		127.819,118.837 127.819,106.14 132.162,106.14 132.162,102.131 	"/>
</g>
</svg>
